<svg width="14" height="15" viewBox="0 0 14 15" fill="none" xmlns="http://www.w3.org/2000/svg">
<path d="M4.75592 3.38213C4.82443 3.1345 5.17557 3.1345 5.24408 3.38213L6.1308 6.58676C6.15326 6.66793 6.21461 6.73263 6.29448 6.75937L9.28271 7.75985C9.51318 7.83701 9.51318 8.16299 9.28271 8.24015L6.29448 9.24063C6.21461 9.26737 6.15326 9.33207 6.1308 9.41324L5.24408 12.6179C5.17557 12.8655 4.82443 12.8655 4.75592 12.6179L3.8692 9.41324C3.84674 9.33207 3.78539 9.26737 3.70552 9.24063L0.71729 8.24015C0.486822 8.16299 0.486823 7.83701 0.71729 7.75985L3.70552 6.75937C3.78539 6.73263 3.84674 6.66793 3.8692 6.58676L4.75592 3.38213Z" fill="white"/>
<path d="M11.1801 2.40097C11.2408 2.04022 11.7592 2.04022 11.8199 2.40097L12.001 3.47727C12.0193 3.58588 12.0914 3.67779 12.1926 3.72136L13.3084 4.20208C13.5698 4.31469 13.5698 4.68531 13.3084 4.79792L12.1926 5.27864C12.0914 5.32221 12.0193 5.41412 12.001 5.52273L11.8199 6.59903C11.7592 6.95978 11.2408 6.95978 11.1801 6.59903L10.999 5.52273C10.9807 5.41412 10.9086 5.32221 10.8074 5.27864L9.69156 4.79792C9.43017 4.68531 9.43017 4.31469 9.69156 4.20208L10.8074 3.72136C10.9086 3.67779 10.9807 3.58588 10.999 3.47727L11.1801 2.40097Z" fill="white"/>
<path d="M10.6241 9.92446C10.6601 9.68162 11.0103 9.68162 11.0463 9.92446L11.2283 11.1525C11.2406 11.2357 11.3006 11.3038 11.3815 11.3266L12.5423 11.6538C12.7496 11.7123 12.7496 12.0062 12.5423 12.0647L11.3815 12.3919C11.3006 12.4147 11.2406 12.4828 11.2283 12.566L11.0463 13.794C11.0103 14.0369 10.6601 14.0369 10.6241 13.794L10.4421 12.566C10.4298 12.4828 10.3698 12.4147 10.2889 12.3919L9.12813 12.0647C8.92077 12.0062 8.92077 11.7123 9.12813 11.6538L10.2889 11.3266C10.3698 11.3038 10.4298 11.2357 10.4421 11.1525L10.6241 9.92446Z" fill="white"/>
</svg>
